<?xml version="1.0" encoding="utf-8"?>
<!-- Generator: Adobe Illustrator 23.0.1, SVG Export Plug-In . SVG Version: 6.00 Build 0)  -->
<svg version="1.1" id="Warstwa_1" xmlns="http://www.w3.org/2000/svg" xmlns:xlink="http://www.w3.org/1999/xlink" x="0px" y="0px"
	 viewBox="0 0 24.88 10.14" style="enable-background:new 0 0 24.88 10.14;" xml:space="preserve">
<style type="text/css">
	.st0{fill:#010202;}
</style>
<g>
	<path class="st0" d="M15.14,1.11L11.9,9.03h0.44c0.05,0,0.1-0.01,0.13-0.04c0.04-0.03,0.06-0.07,0.08-0.11l1.36-3.43h1.55v3.58
		h0.48V5.45h0.87c0.13,0,0.22,0.02,0.28,0.05c0.06,0.03,0.12,0.09,0.17,0.17l2.12,3.21c0.03,0.05,0.07,0.09,0.11,0.11
		c0.04,0.02,0.08,0.03,0.13,0.03h0.42L17.74,5.6c-0.06-0.09-0.13-0.17-0.2-0.22c0.29-0.04,0.55-0.12,0.78-0.24
		c0.23-0.12,0.43-0.28,0.59-0.46c0.16-0.19,0.29-0.41,0.38-0.66c0.09-0.25,0.13-0.53,0.13-0.83c0-0.68-0.19-1.2-0.57-1.55
		c-0.02-0.01-0.03-0.03-0.05-0.04h1.52v7.43h0.57V1.6h2.78V1.11H15.14z M14.07,5.02l1.38-3.5v3.5H14.07z M18.96,3.23
		c0,0.28-0.04,0.52-0.13,0.74c-0.08,0.22-0.21,0.41-0.37,0.57c-0.16,0.16-0.36,0.28-0.59,0.36c-0.23,0.08-0.5,0.13-0.79,0.13h-0.58
		h-0.58V1.56h1.21c0.59,0,1.04,0.14,1.35,0.41C18.8,2.24,18.96,2.66,18.96,3.23z"/>
	<path class="st0" d="M2.13,9.03H1.55V1.11h0.58V9.03z"/>
	<path class="st0" d="M6.62,8.58c0.25,0,0.47-0.01,0.68-0.04c0.2-0.03,0.39-0.07,0.57-0.12c0.18-0.05,0.34-0.12,0.5-0.2
		c0.16-0.08,0.32-0.17,0.48-0.27V5.86H7.46c-0.04,0-0.07-0.01-0.09-0.04C7.34,5.8,7.33,5.77,7.33,5.74V5.43h1.99v2.75
		C9.14,8.32,8.95,8.44,8.76,8.55c-0.19,0.11-0.4,0.19-0.62,0.27C7.92,8.88,7.68,8.94,7.42,8.98C7.17,9.01,6.89,9.03,6.59,9.03
		c-0.52,0-1-0.09-1.43-0.28c-0.43-0.19-0.8-0.45-1.11-0.8C3.75,7.61,3.51,7.19,3.34,6.7C3.17,6.21,3.08,5.67,3.08,5.07
		c0-0.6,0.08-1.14,0.26-1.63c0.17-0.49,0.41-0.9,0.72-1.25c0.31-0.34,0.69-0.61,1.14-0.8C5.65,1.2,6.15,1.11,6.7,1.11
		c0.28,0,0.53,0.02,0.76,0.06c0.23,0.04,0.45,0.1,0.65,0.18c0.2,0.08,0.39,0.18,0.56,0.29c0.17,0.11,0.34,0.25,0.5,0.4L9.04,2.28
		C9.01,2.33,8.97,2.36,8.91,2.36c-0.03,0-0.06-0.01-0.09-0.02C8.77,2.32,8.7,2.26,8.6,2.18C8.51,2.1,8.38,2.02,8.21,1.93
		C8.05,1.84,7.84,1.77,7.59,1.7c-0.25-0.07-0.55-0.1-0.9-0.1c-0.47,0-0.89,0.08-1.27,0.24c-0.38,0.16-0.7,0.39-0.97,0.69
		c-0.27,0.3-0.47,0.66-0.62,1.1C3.69,4.05,3.62,4.53,3.62,5.07c0,0.55,0.07,1.04,0.22,1.47c0.15,0.43,0.35,0.8,0.61,1.1
		c0.26,0.3,0.58,0.53,0.95,0.69C5.77,8.5,6.18,8.58,6.62,8.58z"/>
</g>
</svg>
